<?xml version="1.0" standalone="no"?>
<!DOCTYPE svg PUBLIC "-//W3C//DTD SVG 20010904//EN"
 "http://www.w3.org/TR/2001/REC-SVG-20010904/DTD/svg10.dtd">
<svg version="1.0" xmlns="http://www.w3.org/2000/svg"
 width="615.000000pt" height="586.000000pt" viewBox="0 0 615.000000 586.000000"
 preserveAspectRatio="xMidYMid meet">

<g transform="translate(0.000000,586.000000) scale(0.100000,-0.100000)"
fill="#000000" stroke="none">
<path d="M3012 4173 l3 -497 -60 -43 c-33 -24 -67 -41 -77 -39 -9 2 -122 77
-252 167 l-235 164 -1 283 0 282 33 20 c17 11 27 20 20 20 -7 0 -27 -13 -45
-28 -18 -15 -62 -43 -98 -61 -36 -19 -69 -38 -75 -44 -7 -7 -6 -8 3 -3 9 6 12
-46 12 -242 l0 -249 -119 -79 -119 -79 -1 -93 -1 -93 78 59 c200 151 245 181
257 174 7 -4 115 -79 239 -167 l226 -160 0 -92 c0 -51 -2 -93 -5 -93 -7 0
-127 80 -273 183 -65 45 -119 77 -127 73 -13 -4 -73 -46 -255 -174 -28 -20
-63 -34 -92 -38 l-47 -7 -4 94 c-1 52 -3 -183 -3 -521 0 -338 3 -551 6 -472
l5 142 113 -82 113 -83 -2 -550 -2 -550 39 -43 c21 -24 58 -57 82 -73 l42 -28
0 532 0 533 93 68 c50 38 149 112 219 163 l127 94 96 -66 95 -66 0 -111 0
-110 -93 7 -93 7 -101 -73 -100 -74 -6 -215 c-4 -118 -7 -375 -7 -570 l0 -355
75 -68 75 -68 0 350 0 350 120 85 c65 47 122 86 125 86 3 0 5 -246 5 -547 l-1
-548 76 -3 75 -3 0 551 c0 304 4 550 8 548 4 -1 61 -41 125 -87 l117 -84 0
-350 0 -350 53 49 c28 27 63 61 75 77 l24 27 -7 561 -8 561 -101 75 -101 75
-93 -7 -93 -7 3 113 3 113 93 64 c64 44 96 61 105 54 7 -5 102 -76 212 -157
110 -82 203 -153 207 -159 4 -6 8 -249 8 -541 l0 -530 80 80 80 80 0 547 0
546 110 81 c61 45 112 81 115 81 3 0 6 -116 8 -257 1 -142 3 84 5 503 1 418
-1 801 -5 850 l-6 89 -119 77 -118 78 0 253 0 254 -59 31 c-32 18 -64 39 -71
47 -7 8 -16 15 -21 15 -5 0 -8 -129 -6 -287 l2 -288 -239 -167 c-132 -93 -245
-168 -251 -168 -6 0 -39 21 -74 46 l-63 46 3 491 4 492 -83 3 -82 3 2 -498z
m1022 -497 l156 -116 0 -121 0 -122 -51 7 c-43 6 -71 22 -192 107 -77 56 -146
103 -153 106 -7 2 -98 -54 -203 -126 -104 -72 -192 -131 -195 -131 -3 0 -6 42
-6 93 l0 93 233 166 c127 92 237 165 243 163 6 -2 82 -56 168 -119z m-873
-158 c76 -57 82 -69 77 -144 l-3 -49 -147 -3 -148 -3 0 70 0 70 72 55 c39 31
73 56 75 56 2 0 35 -24 74 -52z m-577 -278 c102 -69 186 -128 186 -132 0 -3
-39 -40 -87 -81 l-86 -75 -66 46 c-331 235 -321 226 -306 241 28 28 160 129
167 128 4 -1 90 -58 192 -127z m1306 59 l90 -71 -195 -140 -196 -139 -85 77
c-46 42 -83 81 -82 85 2 7 366 257 376 259 1 0 43 -32 92 -71z m-657 -127 c3
-4 7 -124 8 -266 l3 -259 -59 -53 c-33 -30 -68 -56 -78 -60 -13 -4 -41 12 -93
51 l-74 57 0 269 0 269 144 0 c80 0 147 -3 149 -8z m-899 -200 c138 -92 256
-171 262 -175 7 -4 52 24 102 63 50 39 93 70 96 70 3 0 6 -53 6 -118 l0 -118
-62 -46 c-246 -179 -303 -218 -315 -216 -7 2 -105 68 -218 148 l-204 145 -1
180 0 180 32 27 c18 15 37 28 42 28 5 0 122 -76 260 -168z m1822 142 l34 -26
0 -182 -1 -181 -214 -152 -214 -151 -185 134 -186 135 0 120 c0 65 1 119 3
119 2 0 45 -31 96 -69 l93 -70 261 175 c144 96 266 174 270 174 5 0 24 -12 43
-26z m-796 -1111 l51 -48 -3 -132 -3 -133 -69 55 -69 55 -175 0 -175 0 -74
-55 -73 -55 0 142 0 143 53 37 52 37 217 1 217 0 51 -47z"/>
<path d="M2948 4653 c12 -2 30 -2 40 0 9 3 -1 5 -23 4 -22 0 -30 -2 -17 -4z"/>
<path d="M3208 4653 c12 -2 30 -2 40 0 9 3 -1 5 -23 4 -22 0 -30 -2 -17 -4z"/>
<path d="M2883 4643 c9 -2 23 -2 30 0 6 3 -1 5 -18 5 -16 0 -22 -2 -12 -5z"/>
<path d="M3283 4643 c9 -2 23 -2 30 0 6 3 -1 5 -18 5 -16 0 -22 -2 -12 -5z"/>
<path d="M2803 4633 c9 -2 25 -2 35 0 9 3 1 5 -18 5 -19 0 -27 -2 -17 -5z"/>
<path d="M3353 4633 c9 -2 23 -2 30 0 6 3 -1 5 -18 5 -16 0 -22 -2 -12 -5z"/>
<path d="M2748 4623 c6 -2 18 -2 25 0 6 3 1 5 -13 5 -14 0 -19 -2 -12 -5z"/>
<path d="M2470 4540 c-8 -5 -10 -10 -5 -10 6 0 17 5 25 10 8 5 11 10 5 10 -5
0 -17 -5 -25 -10z"/>
<path d="M3700 4540 c8 -5 20 -10 25 -10 6 0 3 5 -5 10 -8 5 -19 10 -25 10 -5
0 -3 -5 5 -10z"/>
<path d="M2179 4363 c-13 -16 -12 -17 4 -4 16 13 21 21 13 21 -2 0 -10 -8 -17
-17z"/>
<path d="M2139 4333 c-13 -16 -12 -17 4 -4 9 7 17 15 17 17 0 8 -8 3 -21 -13z"/>
<path d="M2099 4303 c-13 -16 -12 -17 4 -4 9 7 17 15 17 17 0 8 -8 3 -21 -13z"/>
<path d="M2004 4035 c0 -104 2 -146 3 -92 2 54 2 139 0 190 -1 51 -3 7 -3 -98z"/>
<path d="M4184 3995 c0 -121 2 -169 3 -107 2 62 2 161 0 220 -1 59 -3 8 -3
-113z"/>
<path d="M1982 1575 c0 -16 2 -22 5 -12 2 9 2 23 0 30 -3 6 -5 -1 -5 -18z"/>
</g>
</svg>
